<svg xmlns="http://www.w3.org/2000/svg" width="446" height="495" viewBox="0 0 446 495" fill="none"><g clip-path="url(#clip0_4_618)"><path d="M376.87 480.485H80.28L121 441.354H341.19L376.87 480.485Z" fill="#6244FC"></path><path d="M91.9318 475.1L123.687 444.584H338.246L363.769 475.1H91.9318Z" fill="#6FFF90"></path><path d="M80.28 480.474H376.87V488.005C376.87 489.857 376.136 491.634 374.829 492.943C373.522 494.253 371.75 494.989 369.901 494.989H87.2488C85.4025 494.989 83.6316 494.255 82.3251 492.947C81.0185 491.64 80.283 489.867 80.28 488.016V480.474Z" fill="#001B2E"></path><path d="M250.418 398.905C250.418 398.905 254.766 397.698 255.993 398.905C257.219 400.112 267.812 418.727 267.812 418.727C267.812 418.727 234.05 456.908 233.08 457.836C232.11 458.763 210.412 453.009 210.657 452.036C210.902 451.064 213.065 445.757 213.065 445.757L217.648 444.304L234.284 399.609L250.418 398.905Z" fill="#5A245F"></path><path style="mix-blend-mode:multiply" d="M250.418 398.905C250.418 398.905 254.766 397.698 255.993 398.905C257.219 400.112 267.812 418.727 267.812 418.727C267.812 418.727 234.05 456.908 233.08 457.836C232.11 458.763 210.412 453.009 210.657 452.036C210.902 451.064 213.065 445.757 213.065 445.757L217.648 444.304L234.284 399.609L250.418 398.905Z" fill="url(#paint0_linear_4_618)"></path><path d="M242.624 245.645C242.624 245.645 206.587 273.468 198.281 301.022L239.781 409.151C239.781 409.151 249.125 410.191 252.492 399.799L243.382 345.639C243.382 345.639 256.762 318.007 236.436 303.961C236.436 303.961 296.356 272.172 315.277 248.092L242.624 245.645Z" fill="#C34D99"></path><path style="mix-blend-mode:multiply" d="M242.624 245.645C242.624 245.645 206.587 273.468 198.281 301.022L239.781 409.151C239.781 409.151 249.125 410.191 252.492 399.799L243.382 345.639C243.382 345.639 256.762 318.007 236.436 303.961C236.436 303.961 296.356 272.172 315.277 248.092L242.624 245.645Z" fill="url(#paint1_linear_4_618)"></path><path d="M246.783 335.069H211.348L239.781 409.152C239.781 409.152 249.124 410.191 252.492 399.799L243.382 345.64C244.908 342.255 246.048 338.709 246.783 335.069Z" fill="#841C8B"></path><path style="mix-blend-mode:multiply" d="M246.783 335.069H211.348L239.781 409.152C239.781 409.152 249.124 410.191 252.492 399.799L243.382 345.64C244.908 342.255 246.048 338.709 246.783 335.069Z" fill="url(#paint2_linear_4_618)"></path><path d="M246.872 245.824C255.859 249.098 262.482 257.981 266.942 266.216C269.728 271.187 272.068 276.396 273.933 281.781C289.878 271.412 306.748 258.998 315.277 248.159L246.872 245.824Z" fill="#702A77"></path><path style="mix-blend-mode:multiply" d="M246.872 245.824C255.859 249.098 262.482 257.981 266.942 266.216C269.728 271.187 272.068 276.396 273.933 281.781C289.878 271.412 306.748 258.998 315.277 248.159L246.872 245.824Z" fill="url(#paint3_linear_4_618)"></path><path d="M240.996 246.941C240.996 246.941 265.704 257.545 269.261 284.731L264.868 287.491L272.127 292.173L281.114 285.927C280.763 279.812 279.136 273.839 276.338 268.394C273.539 262.949 269.632 258.153 264.868 254.316L248.645 241.98L236.581 242.07L233.604 245.645L236.581 250.707L240.996 246.941Z" fill="#7A2979"></path><path style="mix-blend-mode:multiply" d="M240.996 246.941C240.996 246.941 265.704 257.545 269.261 284.731L264.868 287.491L272.127 292.173L281.114 285.927C280.763 279.812 279.136 273.839 276.338 268.394C273.539 262.949 269.632 258.153 264.868 254.316L248.645 241.98L236.581 242.07L233.604 245.645L236.581 250.707L240.996 246.941Z" fill="url(#paint4_linear_4_618)"></path><path d="M210.267 332.242L217.804 351.875C226.582 350.97 235.204 348.915 243.449 345.763V345.64C243.449 345.64 250.407 331.281 246.671 318.007C246.671 318.007 241.186 333.773 210.267 332.242Z" fill="#6DFF8E"></path><path style="mix-blend-mode:multiply" d="M210.267 332.242L217.804 351.875C226.582 350.97 235.204 348.915 243.449 345.763V345.64C243.449 345.64 250.407 331.281 246.671 318.007C246.671 318.007 241.186 333.773 210.267 332.242Z" fill="url(#paint5_linear_4_618)"></path><path d="M264.099 403.218C264.099 403.218 241.955 413.431 257.342 436.572L277.412 423.521L264.099 403.218Z" fill="#C34D99"></path><path style="mix-blend-mode:multiply" d="M264.099 403.218C264.099 403.218 241.955 413.431 257.342 436.572L277.412 423.521L264.099 403.218Z" fill="url(#paint6_linear_4_618)"></path><path d="M225.074 421.264L236.636 424.817L238.766 417.823L226.713 414.113L225.074 421.264Z" fill="#C34D99"></path><path d="M222.141 431.969L233.704 435.533L235.834 428.527L223.781 424.817L222.141 431.969Z" fill="#C34D99"></path><g style="mix-blend-mode:overlay"><path d="M313.705 250.025C314.252 249.388 314.82 248.752 315.277 248.126L300.325 247.612C294.628 252.785 289.421 259.791 284.358 265.233C277.936 272.116 270.767 276.686 263.173 282.128C256.885 286.597 250.407 290.642 243.784 294.575C238.409 297.782 230.136 301 226.044 305.827C232.734 312.196 237.016 318.834 237.93 328.175C238.331 332.231 239.045 336.98 238.465 341.148C237.941 344.813 235.298 348.467 235.644 352.165C236.034 356.355 240.104 361.417 241.699 365.361C243.293 369.306 244.263 373.016 245.545 376.837C248.154 384.659 249.559 392.972 251.89 401.006C251.89 401.073 251.89 401.14 251.89 401.218C252.09 400.749 252.28 400.28 252.447 399.755L243.338 345.595C243.338 345.595 256.718 317.962 236.391 303.917C236.391 303.917 249.225 297.112 264.891 287.402L264.824 287.458L272.082 292.139L281.069 285.893C280.968 283.144 280.557 280.415 279.843 277.759L279.965 277.681L282.719 275.803L283.043 275.58C283.946 274.954 284.849 274.328 285.741 273.691L286.042 273.479L288.774 271.535L288.941 271.412C290.792 270.071 292.609 268.723 294.393 267.367L294.661 267.155C295.497 266.518 296.322 265.87 297.136 265.233L297.504 264.942L299.868 263.043L300.214 262.752C301.005 262.104 301.775 261.456 302.533 260.819L302.756 260.618C303.536 259.948 304.306 259.277 305.053 258.607L307.205 256.629L307.461 256.383C308.13 255.758 308.777 255.132 309.401 254.506L309.714 254.193C310.327 253.579 310.918 252.975 311.486 252.361L311.787 252.048C312.356 251.433 312.902 250.83 313.438 250.215C313.583 250.182 313.638 250.104 313.705 250.025Z" fill="url(#paint7_linear_4_618)"></path></g><path d="M272.127 292.184C273.714 291.786 275.222 291.121 276.587 290.218C277.933 289.352 279.222 288.401 280.445 287.368L280.969 286.944C281.202 286.775 281.422 286.588 281.627 286.385L281.783 286.24C281.788 286.169 281.788 286.098 281.783 286.027V285.592L281.727 285.178V284.865C281.593 284.05 281.415 283.256 281.225 282.474C280.835 280.899 280.378 279.357 279.988 277.803C280.357 279.365 280.566 280.96 280.612 282.564C280.612 283.357 280.612 284.15 280.612 284.944V285.223C280.612 285.29 280.612 285.346 280.612 285.402C280.612 285.458 280.612 285.67 280.501 285.692C280.4 285.757 280.285 285.799 280.166 285.815C279.997 285.877 279.836 285.96 279.687 286.061C278.287 286.844 276.943 287.722 275.662 288.687C274.286 289.633 273.089 290.818 272.127 292.184Z" fill="#6DFF8E"></path><path d="M279.865 277.815C291.171 267.613 304.127 258.517 315.255 248.126C307.584 260.752 292.955 271.278 279.865 277.815Z" fill="#6DFF8E"></path><path d="M394.71 14.0566L390.384 20.0235V29.1636L391.889 29.6329L398.49 17.4088C406.473 14.9841 406.852 8.76025 406.852 8.76025L394.71 14.0566Z" fill="#9F457E"></path><path d="M195.426 80.8426L182.715 76.9429L179.883 92.7986L176.237 95.9272L174.252 87.8709C173.411 84.4418 173.314 80.8717 173.968 77.4019C174.622 73.9321 176.012 70.6434 178.043 67.7581C183.597 59.8637 190.886 53.3525 199.347 48.7263C207.808 44.1002 217.217 41.4825 226.847 41.075C248.901 40.1699 277.724 44.4271 300.738 66.5401C344.323 108.408 287.257 155.204 287.257 155.204L251.198 151.562L224.996 128.164L195.426 80.8426Z" fill="#54AF68"></path><path style="mix-blend-mode:multiply" d="M195.426 80.8426L182.715 76.9429L179.883 92.7986L176.237 95.9272L174.252 87.8709C173.411 84.4418 173.314 80.8717 173.968 77.4019C174.622 73.9321 176.012 70.6434 178.043 67.7581C183.597 59.8637 190.886 53.3525 199.347 48.7263C207.808 44.1002 217.217 41.4825 226.847 41.075C248.901 40.1699 277.724 44.4271 300.738 66.5401C344.323 108.408 287.257 155.204 287.257 155.204L251.198 151.562L224.996 128.164L195.426 80.8426Z" fill="url(#paint8_linear_4_618)"></path><path d="M300.738 66.5289C277.724 44.4159 248.901 40.1587 226.847 41.0638C217.217 41.4729 207.809 44.0913 199.348 48.7173C190.887 53.3434 183.599 59.8536 178.043 67.7468C176.763 72.4931 176.671 77.4824 177.776 82.2728C178.385 85.15 179.209 87.9774 180.24 90.7314L182.715 76.8758L195.426 80.7755L205.595 97.0334C208.416 93.9159 209.843 100.263 211.348 96.0166C213.969 88.6195 222.755 74.4176 228.988 69.8587C240.662 61.3107 250.407 58.0591 263.553 65.1657C275.606 71.6912 288.83 89.4799 288.083 103.492C287.726 110.71 286.722 117.448 283.032 123.783C279.519 129.784 273.075 134.957 270.577 141.427C269.754 143.46 269.517 145.684 269.893 147.845C270.27 150.006 271.245 152.018 272.707 153.651L287.202 155.126C287.202 155.126 344.323 108.386 300.738 66.5289Z" fill="#80B15B"></path><g style="mix-blend-mode:overlay"><path d="M174.018 77.2C173.315 80.7312 173.395 84.3741 174.252 87.8709L176.237 95.9273L179.883 92.7986L182.224 79.7141L174.018 77.2Z" fill="url(#paint9_linear_4_618)"></path><path d="M300.738 66.529C280.668 47.2318 256.138 41.5332 235.577 40.9968C252.982 43.3657 271.815 50.1035 287.837 65.501C329.639 105.649 278.917 150.321 274.636 153.919L287.258 155.193C287.258 155.193 344.323 108.386 300.738 66.529Z" fill="url(#paint10_linear_4_618)"></path></g><path d="M201.057 127.951L135.16 138.633V157.003L201.057 152.534L217.782 185.116L262.382 212.146L318.756 195.855V185.798L306.647 182.334L272.417 131.382L329.482 87.0998C329.482 87.0998 331.902 74.8868 318.756 68.3054L252.492 101.905L201.057 127.951Z" fill="#3F287C"></path><path d="M152.577 149.662C152.563 145.08 152.254 140.504 151.651 135.963L135.16 138.633V157.003L152.822 155.796C152.755 153.74 152.632 151.696 152.577 149.662Z" fill="#6DFF8E"></path><path d="M170.305 144.287C170.974 147.64 171.587 151.081 172.234 154.478L185.915 153.539C185.693 145.888 184.356 138.31 181.946 131.046L167.306 133.426C168.187 137.024 169.603 140.79 170.305 144.287Z" fill="#6DFF8E"></path><path d="M264.411 95.86C267.388 101.872 271.904 107.984 274.446 113.023C276.42 116.934 278.271 121.18 280.278 125.314L290.736 117.191C286.979 107.648 282.106 98.2512 277.936 89.0105L264.411 95.86Z" fill="#6DFF8E"></path><path d="M318.812 68.2832L301.808 76.8982C306.201 84.34 308.599 92.7427 312.412 100.363L329.538 87.0664C329.538 87.0664 331.958 74.8646 318.812 68.2832Z" fill="#6DFF8E"></path><path style="mix-blend-mode:multiply" d="M201.057 127.951L135.16 138.633V157.003L201.057 152.534L217.782 185.116L262.382 212.146L318.756 195.855V185.798L306.647 182.334L272.417 131.382L329.482 87.0998C329.482 87.0998 331.902 74.8868 318.756 68.3054L252.492 101.905L201.057 127.951Z" fill="url(#paint11_linear_4_618)"></path><path d="M229.924 104.051L236.436 109.325L252.492 101.905C252.492 101.905 252.492 133.348 229.924 147.394C229.924 147.394 210.579 145.159 201.057 127.951L225.776 101.905L229.924 104.051Z" fill="#C34D99"></path><path style="mix-blend-mode:multiply" d="M229.924 104.051L236.436 109.325L252.492 101.905C252.492 101.905 252.492 133.348 229.924 147.394C229.924 147.394 210.579 145.159 201.057 127.951L225.776 101.905L229.924 104.051Z" fill="url(#paint12_linear_4_618)"></path><path d="M213.344 120.565L212.385 121.828C215.258 123.815 217.814 126.226 219.967 128.979C222.195 131.73 223.581 135.067 223.959 138.589C223.839 134.983 222.677 131.489 220.614 128.532C218.604 125.525 216.154 122.839 213.344 120.565Z" fill="#8B277A"></path><path style="mix-blend-mode:multiply" d="M236.436 109.325L229.924 104.051L225.776 101.905L201.681 127.292C205.026 129.885 214.626 125.136 217.815 123.694C223.288 121.21 228.362 117.922 232.868 113.939C234.803 112.233 236.625 110.4 238.32 108.453L236.436 109.325Z" fill="url(#paint13_linear_4_618)"></path><path d="M236.436 94.3741C235.321 85.1892 226.758 87.0776 226.758 87.0776C226.758 87.0776 217.838 97.4804 218.774 90.2063C219.711 82.9321 217.079 69.9258 217.079 69.9258L195.426 80.8426L182.86 76.7306C182.803 76.7972 182.75 76.8682 182.704 76.9429C182.704 76.9429 170.517 111.515 196.719 129.46C196.719 129.46 211.739 125.046 223.68 115.426L226.546 104.509C226.546 104.509 237.707 104.755 236.436 94.3741Z" fill="#C34D99"></path><path style="mix-blend-mode:multiply" d="M236.436 94.3741C235.321 85.1892 226.758 87.0776 226.758 87.0776C226.758 87.0776 217.838 97.4804 218.774 90.2063C219.711 82.9321 217.079 69.9258 217.079 69.9258L195.426 80.8426L182.86 76.7306C182.803 76.7972 182.75 76.8682 182.704 76.9429C182.704 76.9429 170.517 111.515 196.719 129.46C196.719 129.46 211.739 125.046 223.68 115.426L226.546 104.509C226.546 104.509 237.707 104.755 236.436 94.3741Z" fill="url(#paint14_linear_4_618)"></path><g style="mix-blend-mode:overlay" opacity="0.64"><path d="M195.738 128.722C194.359 126.875 193.111 124.934 192.003 122.912C188.862 116.2 186.789 109.036 185.859 101.682C185.516 97.2204 185.456 92.7418 185.681 88.273C185.787 85.0447 186.134 81.8289 186.718 78.6524C186.718 78.4848 186.718 78.2948 186.796 78.116L182.86 76.7305C182.803 76.797 182.75 76.868 182.704 76.9428C182.704 76.9428 170.874 110.621 195.738 128.722Z" fill="white"></path></g><path style="mix-blend-mode:multiply" d="M181.165 106.699L220.001 109.313V97.0333L234.016 88.1055L181.165 106.699Z" fill="url(#paint15_linear_4_618)"></path><path d="M196.731 129.449C206.275 126.023 215.225 121.122 223.256 114.923L223.011 115.291C223.948 111.649 224.903 108.01 225.877 104.375L226.01 103.861C231.05 104.039 236.302 101.38 236.045 95.7037C236.157 90.1168 232.489 86.3624 226.791 87.1333C231.585 85.9601 236.079 88.6642 236.826 93.7259C238.409 100.777 233.369 105.235 226.601 105.257L227.304 104.732C226.345 108.457 225.368 112.181 224.371 115.906C216.176 122.239 206.801 126.869 196.797 129.527L196.731 129.449Z" fill="#6DFF8E"></path><path d="M195.426 117.37L199.195 119.057L198.28 122.823L217.347 113.984V108.397L195.426 117.37Z" fill="#3B0D56"></path><path d="M215.095 109.313L213.199 113.079L217.347 113.984L198.281 122.823L201.782 117.884L198.281 116.197L215.095 109.313Z" fill="white"></path><path d="M233.559 92.7426C233.559 92.7426 226.011 92.061 226.758 101.246C227.133 99.7992 228.047 98.5516 229.312 97.7597C230.577 96.9678 232.097 96.6919 233.559 96.9886C232.788 96.3442 231.815 95.9913 230.811 95.9913C229.806 95.9913 228.834 96.3442 228.062 96.9886C228.062 96.9886 229.177 93.9829 233.559 92.7426Z" fill="#3B0D56"></path><path d="M318.812 68.2832C318.812 68.2832 327.81 47.8351 353.377 53.0309L383.482 36.3931L392.893 8.65971L402.928 0C402.928 0 404.411 6.05621 397.509 10.7492L392.904 34.136L397.509 40.952C397.509 40.952 408.871 33.3762 411.223 40.952L395.937 49.8911H382.445L329.538 87.0775L318.812 68.2832Z" fill="#C34D99"></path><path style="mix-blend-mode:multiply" d="M318.812 68.2832C318.812 68.2832 327.81 47.8351 353.377 53.0309L383.482 36.3931L392.893 8.65971L402.928 0C402.928 0 404.411 6.05621 397.509 10.7492L392.904 34.136L397.509 40.952C397.509 40.952 408.871 33.3762 411.223 40.952L395.937 49.8911H382.445L329.538 87.0775L318.812 68.2832Z" fill="url(#paint16_linear_4_618)"></path><path d="M392.904 34.136C394.739 36.1878 396.458 38.3402 398.055 40.5833L397.152 40.4045C398.287 39.6318 399.484 38.9553 400.731 38.382C404.187 36.6613 410.465 35.7674 411.234 40.952C410.94 40.3622 410.565 39.8168 410.119 39.3318C407.677 37.03 404.009 38.5608 401.311 39.7005C399.929 40.3341 398.585 41.0467 397.286 41.8347C395.683 39.3526 394.22 36.7823 392.904 34.136Z" fill="#6DFF8E"></path><path d="M135.16 138.634C135.16 138.634 114.477 122.823 101.61 138.634L66.6882 140.198C54.8799 131.483 46.0569 119.316 41.4334 105.369C41.4334 105.369 37.9769 106.408 38.3226 112.297C38.6682 118.186 49.0489 140.231 49.0489 140.231L48.0119 144.567C48.0119 144.567 33.7734 149.036 38.3003 157.037C38.3003 157.037 47.6663 150.455 54.5793 150.109C61.4923 149.763 135.16 157.037 135.16 157.037V138.634Z" fill="#C34D99"></path><path style="mix-blend-mode:multiply" d="M135.16 138.634C135.16 138.634 114.477 122.823 101.61 138.634L66.6882 140.198C54.8799 131.483 46.0569 119.316 41.4334 105.369C41.4334 105.369 37.9769 106.408 38.3226 112.297C38.6682 118.186 49.0489 140.231 49.0489 140.231L48.0119 144.567C48.0119 144.567 33.7734 149.036 38.3003 157.037C38.3003 157.037 47.6663 150.455 54.5793 150.109C61.4923 149.763 135.16 157.037 135.16 157.037V138.634Z" fill="url(#paint17_linear_4_618)"></path><path d="M35.5573 115.615C35.5573 115.615 33.1377 119.493 35.5573 122.823C37.9768 126.152 47.7554 137.349 47.7554 137.349L40.4187 119.862L35.5573 115.615Z" fill="#9C457C"></path><path d="M313.449 190.279L272.473 205.922L226.758 199.162C226.758 199.162 214.493 195.866 208.215 204.537C201.938 213.207 141.393 293.268 141.393 293.268L155.888 304.006L193.241 267.266C193.241 267.266 228.018 262.417 224.639 233.477C274.368 274.552 326.394 253.232 329.683 228.851C332.972 204.47 313.449 190.279 313.449 190.279Z" fill="#C34D99"></path><path style="mix-blend-mode:multiply" d="M313.449 190.279L272.473 205.922L226.758 199.162C226.758 199.162 214.493 195.866 208.215 204.537C201.938 213.207 141.393 293.268 141.393 293.268L155.888 304.006L193.241 267.266C193.241 267.266 228.018 262.417 224.639 233.477C274.368 274.552 326.394 253.232 329.683 228.851C332.972 204.47 313.449 190.279 313.449 190.279Z" fill="url(#paint18_linear_4_618)"></path><path d="M213.567 254.763C208.262 250.921 203.381 246.523 199.005 241.645C195.593 238.036 192.148 234.259 188.903 230.303C169.034 256.685 141.393 293.268 141.393 293.268L155.888 304.006L193.241 267.266C193.241 267.266 206.175 265.456 215.541 257.478L213.567 254.763Z" fill="#841C8B"></path><path style="mix-blend-mode:multiply" d="M213.567 254.763C208.262 250.921 203.381 246.523 199.005 241.645C195.593 238.036 192.148 234.259 188.903 230.303C169.034 256.685 141.393 293.268 141.393 293.268L155.888 304.006L193.241 267.266C193.241 267.266 206.175 265.456 215.541 257.478L213.567 254.763Z" fill="url(#paint19_linear_4_618)"></path><path d="M313.449 190.279L286.198 200.659C286.198 200.738 286.276 200.816 286.31 200.905C295.397 217.498 282.965 240.181 274.97 256.104C304.551 259.389 327.554 244.751 329.706 228.806C332.995 204.414 313.449 190.279 313.449 190.279Z" fill="#841C8B"></path><path d="M313.449 190.279L272.473 205.922L262.348 204.425C262.348 204.492 267.054 205.062 267.087 205.129C272.417 216.616 268.091 232.002 267.31 244.438C267.098 247.712 264.779 250.729 264.11 254.182C297.872 261.847 325.725 258.082 329.706 228.851C333.028 204.414 313.449 190.279 313.449 190.279Z" fill="#841C8B"></path><path style="mix-blend-mode:multiply" d="M313.449 190.279L272.473 205.922L262.348 204.425C262.348 204.492 267.054 205.062 267.087 205.129C272.417 216.616 268.091 232.002 267.31 244.438C267.098 247.712 264.779 250.729 264.11 254.182C297.872 261.847 325.725 258.082 329.706 228.851C333.028 204.414 313.449 190.279 313.449 190.279Z" fill="url(#paint20_linear_4_618)"></path><g style="mix-blend-mode:multiply"><path d="M266.039 204.928L267.087 205.084C266.745 205.006 266.399 204.95 266.05 204.917L266.039 204.928Z" fill="url(#paint21_linear_4_618)"></path></g><g style="mix-blend-mode:multiply"><path d="M321.466 198.514C319.173 195.422 316.476 192.652 313.449 190.279L272.473 205.922L267.087 205.129C267.243 205.464 267.366 205.81 267.5 206.157C272.863 207.71 287.503 205.285 291.684 204.861C299.043 204.09 306.491 203.442 313.694 202.067C316.225 201.576 320.54 201.52 321.399 199.084C321.452 198.899 321.475 198.706 321.466 198.514Z" fill="url(#paint22_linear_4_618)"></path></g><g style="mix-blend-mode:multiply"><path d="M269.886 204.09L302.578 209.643L269.529 206.962L269.886 204.09Z" fill="#5A245F"></path></g><path d="M260.085 204.045L261.2 201.084C261.355 200.67 261.645 200.321 262.024 200.093C262.403 199.866 262.847 199.774 263.285 199.833L275.36 201.553C275.36 201.553 281.537 214.303 276.42 232.728C271.302 251.154 261.724 258.842 261.724 258.842C261.724 258.842 250.797 253.378 250.217 252.741C249.637 252.104 249.86 249.009 249.86 249.009L253.629 250.763C253.629 250.763 268.302 231.175 265.95 205.051L260.085 204.045Z" fill="#90298F"></path><path style="mix-blend-mode:multiply" d="M260.085 204.045L261.2 201.084C261.355 200.67 261.645 200.321 262.024 200.093C262.403 199.866 262.847 199.774 263.285 199.833L275.36 201.553C275.36 201.553 281.537 214.303 276.42 232.728C271.302 251.154 261.724 258.842 261.724 258.842C261.724 258.842 250.797 253.378 250.217 252.741C249.637 252.104 249.86 249.009 249.86 249.009L253.629 250.763C253.629 250.763 268.302 231.175 265.95 205.051L260.085 204.045Z" fill="url(#paint23_linear_4_618)"></path><path d="M192.962 224.873L179.158 243.198C192.181 247.869 197.779 258.618 200.12 265.546C205.193 263.959 212.106 260.987 217.347 255.713C216.773 248.734 214.151 242.082 209.812 236.595C205.472 231.107 199.61 227.028 192.962 224.873Z" fill="#6DFF8E"></path><path style="mix-blend-mode:multiply" d="M192.962 224.873L179.158 243.198C192.181 247.869 197.779 258.618 200.12 265.546C205.193 263.959 212.106 260.987 217.347 255.713C216.773 248.734 214.151 242.082 209.812 236.595C205.472 231.107 199.61 227.028 192.962 224.873Z" fill="url(#paint24_linear_4_618)"></path><path d="M171.565 107.101L170.305 87.0776H217.826L216.176 106.576L171.565 107.101Z" fill="#6DFF8E"></path><path d="M173.383 89.9827L174.275 104.162L213.523 103.704L214.638 89.9827H173.383Z" fill="#3B0D56"></path><path d="M217.826 87.0776L233.225 82.2058C233.225 82.2058 236.57 84.1277 234.016 88.1056L217.079 95.9273L217.826 87.0776Z" fill="#6DFF8E"></path><path d="M218.975 163.875L216.165 164.847L216.968 167.205C217.017 167.327 217.017 167.463 216.968 167.585C216.938 167.643 216.897 167.695 216.848 167.737C216.798 167.779 216.74 167.811 216.678 167.831C216.618 167.858 216.554 167.872 216.488 167.872C216.423 167.872 216.358 167.858 216.299 167.831C216.184 167.773 216.097 167.673 216.054 167.551L213.824 160.97C213.774 160.848 213.774 160.712 213.824 160.59C213.851 160.531 213.889 160.478 213.937 160.434C213.985 160.39 214.041 160.355 214.102 160.333L217.392 159.216C217.888 159.045 218.433 159.078 218.905 159.308C219.377 159.539 219.739 159.948 219.911 160.445L220.235 161.384C220.321 161.63 220.357 161.891 220.342 162.152C220.327 162.412 220.261 162.667 220.146 162.902C220.032 163.137 219.873 163.347 219.678 163.52C219.482 163.692 219.255 163.825 219.008 163.909L218.975 163.875ZM218.975 160.735C218.934 160.612 218.868 160.497 218.782 160.399C218.696 160.301 218.591 160.222 218.473 160.166C218.354 160.113 218.224 160.086 218.094 160.086C217.964 160.086 217.834 160.113 217.715 160.166L214.894 161.138L215.864 163.954L218.685 162.981C218.809 162.94 218.923 162.874 219.02 162.788C219.118 162.702 219.197 162.596 219.254 162.479C219.354 162.235 219.354 161.962 219.254 161.719L218.975 160.735Z" fill="#6DFF8E"></path><path d="M228.854 163.618L224.115 165.238C223.994 165.288 223.857 165.288 223.736 165.238C223.677 165.21 223.624 165.17 223.582 165.12C223.539 165.07 223.508 165.011 223.491 164.948L221.261 158.378C221.234 158.318 221.219 158.253 221.219 158.188C221.219 158.122 221.234 158.057 221.261 157.998C221.287 157.938 221.326 157.885 221.374 157.841C221.422 157.796 221.478 157.762 221.539 157.741C221.599 157.716 221.664 157.703 221.729 157.703C221.794 157.703 221.858 157.716 221.918 157.741C222.039 157.8 222.131 157.905 222.175 158.031L224.193 163.898C224.215 163.959 224.259 164.011 224.316 164.043C224.345 164.057 224.378 164.064 224.411 164.064C224.443 164.064 224.476 164.057 224.505 164.043L228.497 162.668C228.556 162.641 228.621 162.627 228.687 162.627C228.752 162.627 228.817 162.641 228.876 162.668C228.934 162.696 228.985 162.735 229.028 162.783C229.07 162.831 229.102 162.887 229.121 162.948C229.149 163.007 229.164 163.072 229.164 163.138C229.164 163.203 229.149 163.268 229.121 163.328C229.1 163.392 229.065 163.452 229.019 163.502C228.973 163.552 228.916 163.592 228.854 163.618Z" fill="#6DFF8E"></path><path d="M236.636 160.769C236.608 160.829 236.567 160.882 236.517 160.927C236.467 160.971 236.409 161.004 236.347 161.026C236.287 161.051 236.222 161.064 236.157 161.064C236.092 161.064 236.027 161.051 235.967 161.026C235.909 160.996 235.858 160.955 235.816 160.905C235.773 160.856 235.742 160.798 235.722 160.735L234.986 158.624C234.976 158.593 234.96 158.564 234.939 158.539C234.918 158.515 234.892 158.495 234.863 158.48C234.834 158.465 234.802 158.457 234.77 158.455C234.737 158.452 234.705 158.457 234.674 158.467L231.396 159.585C231.364 159.596 231.334 159.613 231.309 159.636C231.284 159.659 231.265 159.687 231.251 159.719C231.237 159.748 231.23 159.781 231.23 159.814C231.23 159.846 231.237 159.879 231.251 159.909L231.92 162.02C231.948 162.08 231.962 162.145 231.962 162.21C231.962 162.276 231.948 162.341 231.92 162.4C231.893 162.46 231.855 162.513 231.807 162.558C231.759 162.602 231.703 162.636 231.641 162.657C231.581 162.683 231.517 162.696 231.452 162.696C231.387 162.696 231.322 162.683 231.262 162.657C231.202 162.628 231.149 162.588 231.105 162.538C231.061 162.488 231.027 162.43 231.006 162.367L229.233 157.205C229.062 156.705 229.095 156.158 229.325 155.683C229.554 155.208 229.962 154.843 230.459 154.668L232.333 154.02C232.829 153.852 233.372 153.887 233.844 154.117C234.316 154.347 234.678 154.754 234.852 155.249L236.636 160.423C236.678 160.534 236.678 160.657 236.636 160.769ZM233.938 155.54C233.898 155.417 233.833 155.303 233.746 155.207C233.66 155.111 233.554 155.034 233.436 154.981C233.317 154.929 233.188 154.902 233.057 154.902C232.927 154.902 232.798 154.929 232.678 154.981L230.805 155.64C230.681 155.681 230.567 155.747 230.47 155.834C230.372 155.92 230.293 156.025 230.236 156.143C230.184 156.263 230.157 156.392 230.157 156.523C230.157 156.654 230.184 156.783 230.236 156.903L230.805 158.545C230.812 158.577 230.826 158.606 230.848 158.629C230.87 158.653 230.897 158.67 230.928 158.679C230.957 158.693 230.99 158.701 231.022 158.701C231.055 158.701 231.088 158.693 231.117 158.679L234.395 157.562C234.457 157.54 234.509 157.497 234.54 157.439C234.562 157.378 234.562 157.311 234.54 157.249L233.938 155.54Z" fill="#6DFF8E"></path><path d="M243.672 156.433C243.843 156.933 243.81 157.48 243.58 157.955C243.351 158.43 242.943 158.795 242.446 158.97L240.104 159.774C240.043 159.802 239.976 159.816 239.909 159.816C239.842 159.816 239.775 159.802 239.714 159.774C239.656 159.747 239.605 159.708 239.562 159.66C239.52 159.612 239.488 159.556 239.468 159.495C239.443 159.435 239.43 159.37 239.43 159.305C239.43 159.24 239.443 159.175 239.468 159.115C239.496 159.054 239.536 159 239.586 158.955C239.636 158.911 239.695 158.878 239.758 158.858L242.1 158.054C242.225 158.012 242.34 157.944 242.438 157.856C242.535 157.768 242.614 157.66 242.669 157.54C242.769 157.296 242.769 157.023 242.669 156.78L242.256 155.584C242.032 155.852 241.739 156.053 241.409 156.165L239.535 156.813C239.291 156.907 239.029 156.947 238.768 156.932C238.506 156.916 238.251 156.846 238.019 156.724C237.783 156.617 237.571 156.463 237.396 156.271C237.222 156.079 237.088 155.852 237.004 155.607L236.202 153.26C236.174 153.2 236.16 153.136 236.16 153.07C236.16 153.005 236.174 152.94 236.202 152.88C236.227 152.821 236.265 152.768 236.313 152.726C236.362 152.683 236.419 152.652 236.48 152.634C236.54 152.606 236.604 152.592 236.67 152.592C236.735 152.592 236.8 152.606 236.859 152.634C236.919 152.661 236.972 152.7 237.016 152.748C237.06 152.796 237.094 152.852 237.116 152.914L237.919 155.26C237.957 155.387 238.022 155.505 238.111 155.603C238.2 155.702 238.309 155.779 238.432 155.83C238.551 155.882 238.68 155.909 238.811 155.909C238.941 155.909 239.07 155.882 239.19 155.83L241.063 155.182C241.187 155.141 241.301 155.075 241.398 154.989C241.496 154.902 241.575 154.797 241.632 154.679C241.732 154.436 241.732 154.163 241.632 153.919L240.818 151.573C240.768 151.451 240.768 151.315 240.818 151.193C240.845 151.135 240.884 151.083 240.932 151.041C240.98 150.999 241.036 150.967 241.096 150.947C241.158 150.92 241.224 150.906 241.292 150.906C241.359 150.906 241.425 150.92 241.487 150.947C241.544 150.974 241.596 151.013 241.638 151.061C241.68 151.109 241.712 151.166 241.732 151.226L243.672 156.433Z" fill="#6DFF8E"></path><path d="M249.08 149.249L245.099 150.634C245.068 150.643 245.038 150.658 245.013 150.679C244.988 150.701 244.968 150.727 244.954 150.757C244.932 150.818 244.932 150.886 244.954 150.947L245.601 152.824C245.612 152.856 245.63 152.886 245.653 152.911C245.676 152.936 245.704 152.956 245.735 152.97C245.764 152.983 245.797 152.991 245.83 152.991C245.862 152.991 245.895 152.983 245.924 152.97L248.968 151.919C249.028 151.892 249.092 151.878 249.158 151.878C249.223 151.878 249.288 151.892 249.347 151.919C249.407 151.946 249.46 151.984 249.504 152.032C249.548 152.08 249.582 152.137 249.604 152.199C249.631 152.258 249.645 152.323 249.645 152.388C249.645 152.454 249.631 152.519 249.604 152.578C249.577 152.638 249.539 152.692 249.491 152.736C249.443 152.78 249.387 152.814 249.325 152.835L246.281 153.886C246.219 153.908 246.168 153.951 246.136 154.009C246.122 154.038 246.115 154.071 246.115 154.104C246.115 154.136 246.122 154.169 246.136 154.199L246.783 156.076C246.805 156.138 246.848 156.189 246.906 156.221C246.935 156.235 246.968 156.242 247 156.242C247.033 156.242 247.065 156.235 247.095 156.221L251.087 154.847C251.148 154.826 251.213 154.817 251.278 154.822C251.343 154.826 251.406 154.843 251.464 154.872C251.522 154.902 251.574 154.942 251.616 154.991C251.659 155.04 251.691 155.098 251.711 155.16C251.761 155.281 251.761 155.418 251.711 155.539C251.65 155.652 251.551 155.739 251.432 155.785L246.738 157.406C246.679 157.433 246.614 157.448 246.549 157.448C246.483 157.448 246.419 157.433 246.359 157.406C246.301 157.378 246.25 157.339 246.208 157.291C246.166 157.243 246.134 157.187 246.114 157.126L243.884 150.545C243.84 150.422 243.84 150.288 243.884 150.165C243.946 150.047 244.049 149.955 244.174 149.908L248.857 148.288C248.917 148.263 248.981 148.25 249.046 148.25C249.111 148.25 249.176 148.263 249.236 148.288C249.296 148.317 249.349 148.357 249.393 148.407C249.437 148.457 249.471 148.515 249.492 148.578C249.518 148.638 249.53 148.703 249.53 148.768C249.53 148.833 249.518 148.898 249.492 148.958C249.456 149.039 249.399 149.109 249.326 149.161C249.254 149.212 249.168 149.242 249.08 149.249Z" fill="#6DFF8E"></path><path d="M257.565 150.008C257.824 150.112 258.056 150.272 258.245 150.478C258.444 150.679 258.593 150.924 258.68 151.193L259.171 152.601C259.196 152.661 259.209 152.726 259.209 152.791C259.209 152.856 259.196 152.921 259.171 152.981C259.144 153.04 259.106 153.094 259.058 153.138C259.01 153.182 258.953 153.216 258.892 153.238C258.767 153.288 258.627 153.288 258.502 153.238C258.442 153.21 258.39 153.169 258.347 153.119C258.305 153.069 258.274 153.01 258.256 152.947L257.766 151.539C257.725 151.415 257.659 151.301 257.573 151.203C257.487 151.105 257.382 151.026 257.264 150.969C257.144 150.917 257.015 150.89 256.885 150.89C256.754 150.89 256.625 150.917 256.506 150.969L253.696 151.942L254.499 154.288C254.529 154.347 254.545 154.412 254.545 154.478C254.545 154.544 254.529 154.609 254.499 154.668C254.472 154.728 254.434 154.781 254.386 154.825C254.338 154.869 254.282 154.903 254.22 154.925C254.16 154.95 254.096 154.963 254.031 154.963C253.965 154.963 253.901 154.95 253.841 154.925C253.78 154.898 253.726 154.858 253.681 154.807C253.637 154.757 253.604 154.698 253.584 154.634L251.354 148.064C251.329 148.004 251.316 147.939 251.316 147.874C251.316 147.809 251.329 147.744 251.354 147.684C251.382 147.623 251.422 147.569 251.472 147.524C251.522 147.48 251.581 147.447 251.644 147.427L254.923 146.31C255.168 146.224 255.429 146.187 255.689 146.202C255.949 146.218 256.204 146.284 256.438 146.398C256.672 146.513 256.882 146.672 257.054 146.868C257.226 147.064 257.358 147.292 257.442 147.539L257.766 148.478C257.866 148.745 257.9 149.032 257.866 149.316C257.811 149.564 257.709 149.799 257.565 150.008ZM256.45 147.774C256.412 147.648 256.347 147.532 256.261 147.434C256.174 147.336 256.068 147.257 255.948 147.204C255.829 147.152 255.7 147.125 255.569 147.125C255.439 147.125 255.31 147.152 255.19 147.204L252.38 148.176L253.35 150.992L256.16 150.02C256.284 149.978 256.398 149.913 256.496 149.826C256.593 149.74 256.673 149.635 256.729 149.517C256.781 149.397 256.808 149.268 256.808 149.137C256.808 149.006 256.781 148.877 256.729 148.757L256.45 147.774Z" fill="#6DFF8E"></path><path d="M232.065 180.882L228.575 182.133C227.64 182.451 226.618 182.386 225.731 181.953C224.844 181.52 224.163 180.753 223.836 179.82L221.417 172.769C221.257 172.307 221.189 171.818 221.218 171.33C221.247 170.841 221.371 170.363 221.585 169.923C221.798 169.483 222.096 169.09 222.461 168.765C222.827 168.44 223.252 168.191 223.714 168.032L227.226 166.814C228.159 166.489 229.182 166.55 230.071 166.981C230.96 167.413 231.641 168.181 231.965 169.116L234.395 176.166C234.712 177.103 234.648 178.127 234.216 179.016C233.783 179.906 233.019 180.588 232.087 180.915L232.065 180.882ZM230.181 169.708C230.014 169.246 229.672 168.869 229.229 168.66C228.786 168.45 228.278 168.425 227.817 168.59L224.293 169.808C224.063 169.885 223.85 170.007 223.668 170.169C223.486 170.33 223.338 170.527 223.234 170.747C223.124 170.967 223.059 171.207 223.043 171.453C223.028 171.699 223.063 171.945 223.145 172.177L225.576 179.228C225.747 179.686 226.09 180.059 226.531 180.268C226.973 180.477 227.478 180.504 227.939 180.345L231.463 179.127C231.92 178.956 232.293 178.612 232.501 178.17C232.709 177.728 232.737 177.221 232.578 176.759L230.181 169.708Z" fill="#6DFF8E"></path><path d="M248.779 175.094C248.622 175.142 248.457 175.151 248.296 175.122C248.135 175.093 247.983 175.026 247.853 174.926L237.25 167.361L240.595 176.96C240.673 177.194 240.656 177.449 240.547 177.671C240.439 177.893 240.248 178.063 240.015 178.144C239.902 178.191 239.781 178.216 239.658 178.216C239.536 178.216 239.414 178.191 239.301 178.144C239.191 178.09 239.093 178.015 239.013 177.923C238.932 177.831 238.871 177.724 238.833 177.608L234.585 165.316C234.535 165.204 234.509 165.082 234.509 164.959C234.509 164.836 234.535 164.714 234.585 164.601C234.646 164.471 234.736 164.357 234.849 164.268C234.962 164.178 235.094 164.117 235.234 164.087C235.375 164.058 235.52 164.062 235.659 164.099C235.798 164.136 235.927 164.205 236.034 164.3L246.649 171.876L243.304 162.266C243.21 162.037 243.21 161.78 243.304 161.551C243.416 161.325 243.612 161.153 243.85 161.07C244.075 161.014 244.312 161.042 244.518 161.149C244.723 161.256 244.882 161.435 244.965 161.651L249.214 173.943C249.308 174.172 249.308 174.429 249.214 174.658C249.126 174.851 248.972 175.006 248.779 175.094Z" fill="#6DFF8E"></path><path d="M258.591 157.897L251.12 160.478C251.004 160.518 250.908 160.603 250.853 160.713C250.828 160.769 250.815 160.83 250.815 160.892C250.815 160.953 250.828 161.014 250.853 161.071L252.068 164.601C252.111 164.713 252.195 164.805 252.302 164.858C252.358 164.883 252.419 164.896 252.481 164.896C252.542 164.896 252.603 164.883 252.659 164.858L258.379 162.881C258.495 162.841 258.617 162.825 258.739 162.832C258.861 162.84 258.98 162.872 259.09 162.926C259.2 162.98 259.298 163.055 259.379 163.147C259.459 163.239 259.521 163.346 259.561 163.462C259.6 163.578 259.617 163.7 259.609 163.823C259.601 163.945 259.57 164.064 259.516 164.174C259.462 164.284 259.387 164.383 259.295 164.464C259.203 164.545 259.097 164.607 258.981 164.646L253.261 166.624C253.149 166.667 253.058 166.751 253.005 166.859C252.98 166.915 252.967 166.976 252.967 167.037C252.967 167.099 252.98 167.16 253.005 167.216L254.22 170.747C254.238 170.804 254.268 170.857 254.309 170.901C254.349 170.946 254.399 170.981 254.454 171.004C254.51 171.029 254.571 171.041 254.633 171.041C254.694 171.041 254.755 171.029 254.811 171.004L262.281 168.423C262.393 168.376 262.512 168.352 262.633 168.352C262.753 168.352 262.873 168.376 262.984 168.423C263.095 168.476 263.195 168.551 263.277 168.643C263.359 168.735 263.423 168.843 263.463 168.959C263.513 169.072 263.539 169.194 263.539 169.317C263.539 169.44 263.513 169.562 263.463 169.674C263.409 169.784 263.334 169.882 263.242 169.963C263.151 170.043 263.044 170.105 262.928 170.144L254.142 173.183C254.03 173.233 253.908 173.259 253.785 173.259C253.662 173.259 253.541 173.233 253.428 173.183C253.315 173.132 253.214 173.056 253.133 172.962C253.052 172.867 252.993 172.756 252.96 172.635L248.701 160.344C248.622 160.11 248.639 159.854 248.748 159.633C248.856 159.411 249.048 159.241 249.281 159.16L258.078 156.121C258.189 156.074 258.308 156.049 258.429 156.049C258.55 156.049 258.669 156.074 258.78 156.121C259.004 156.229 259.176 156.422 259.26 156.657C259.31 156.77 259.335 156.891 259.335 157.014C259.335 157.138 259.31 157.259 259.26 157.372C259.193 157.503 259.099 157.618 258.983 157.709C258.868 157.8 258.734 157.864 258.591 157.897Z" fill="#6DFF8E"></path><path style="mix-blend-mode:overlay" d="M313.449 245.824C284.247 261.4 222.141 228.415 222.141 228.415C222.141 228.415 222.342 255.601 194.69 261.936L152.22 301.324L155.91 304.051L193.263 267.311C193.263 267.311 228.04 262.462 224.661 233.521C237.975 244.517 251.421 251.031 264.11 254.227H264.199C266.697 254.852 269.161 255.344 271.592 255.724C301.92 261.154 326.026 255.914 329.706 228.907C333.051 204.514 313.449 190.379 313.449 190.379C313.449 190.379 342.651 230.181 313.449 245.824Z" fill="url(#paint25_linear_4_618)"></path><path d="M271.592 255.657C289.432 257.456 312.936 259.087 323.796 241.935C333.831 224.94 327.933 202.961 313.449 190.279C330.174 201.676 336.864 225.543 326.26 243.444C314.854 261.612 289.777 259.992 271.625 255.657H271.592Z" fill="#6DFF8E"></path><path style="mix-blend-mode:multiply" d="M264.69 204.727L267.087 205.084C267.087 205.084 265.872 204.883 264.69 204.727Z" fill="url(#paint26_linear_4_618)"></path><path style="mix-blend-mode:overlay" d="M272.473 131.359L265.894 135.214L302.578 183.955L318.812 185.776L306.703 182.312L272.473 131.359Z" fill="url(#paint27_linear_4_618)"></path><path d="M306.703 182.312C300.166 174.418 294.051 166.183 288.384 157.64C282.614 149.172 277.302 140.399 272.473 131.359C279.009 139.25 285.124 147.482 290.792 156.02C296.563 164.491 301.874 173.268 306.703 182.312Z" fill="#6DFF8E"></path><path style="mix-blend-mode:overlay" d="M373.96 49.9133C373.96 49.9133 285.317 111.85 266.396 134.6C268.447 133.538 270.544 132.588 272.651 131.627L272.472 131.359L329.538 87.0774L382.445 49.9133H373.96Z" fill="url(#paint28_linear_4_618)"></path><path d="M139.565 291.346L161.987 303.134V326.599C155.511 327.445 148.967 327.636 142.452 327.169C124.419 326.095 106.749 321.622 90.3707 313.984L96.1576 303.179L103.628 306.978L139.565 291.346Z" fill="#5A245F"></path><path style="mix-blend-mode:multiply" d="M139.565 291.346L161.987 303.134V326.599C155.511 327.445 148.967 327.636 142.452 327.169C124.419 326.095 106.749 321.622 90.3707 313.984L96.1576 303.179L103.628 306.978L139.565 291.346Z" fill="url(#paint29_linear_4_618)"></path><path d="M142.452 327.158C142.452 327.158 142.698 304.051 161.987 309.358V326.588C155.511 327.435 148.967 327.626 142.452 327.158Z" fill="#C34D99"></path><path style="mix-blend-mode:multiply" d="M142.452 327.158C142.452 327.158 142.698 304.051 161.987 309.358V326.588C155.511 327.435 148.967 327.626 142.452 327.158Z" fill="url(#paint30_linear_4_618)"></path><path d="M111.344 300.71C111.589 302.341 114.968 312.252 114.968 312.252L121 309.358L117.376 298.184L111.344 300.71Z" fill="#C34D99"></path><path d="M121 296.788L124.858 308.565L131.369 305.246L127.266 293.011L121 296.788Z" fill="#C34D99"></path><path d="M243.382 345.639C247.508 331.024 248.801 314.979 236.436 303.961C251.99 311.425 251.8 332.767 243.382 345.639Z" fill="#6DFF8E"></path><path style="mix-blend-mode:overlay" d="M91.9317 475.099L0 109.313H446L363.769 475.099H91.9317Z" fill="url(#paint31_linear_4_618)"></path><g filter="url(#filter0_d_4_618)"><path d="M302.578 369.786L283.065 403.665H322.09L302.578 369.786Z" fill="white"></path></g><g filter="url(#filter1_d_4_618)"><path d="M152.22 399.844C163.538 399.844 172.713 390.649 172.713 379.307C172.713 367.964 163.538 358.769 152.22 358.769C140.901 358.769 131.726 367.964 131.726 379.307C131.726 390.649 140.901 399.844 152.22 399.844Z" stroke="white" stroke-width="7" stroke-miterlimit="10"></path></g><g filter="url(#filter2_d_4_618)"><path d="M107.586 208.917H77.4144V239.153H107.586V208.917Z" fill="white"></path></g><g filter="url(#filter3_d_4_618)"><path d="M371.228 290.866L360.558 280.172L350.656 290.095L340.755 280.172L330.085 290.866L339.986 300.788L330.085 310.71L340.755 321.393L350.656 311.47L360.558 321.393L371.228 310.71L361.327 300.788L371.228 290.866Z" fill="white"></path></g><path style="mix-blend-mode:overlay" d="M358.952 403.665H337.845V424.817H358.952V403.665Z" fill="url(#paint32_linear_4_618)"></path><path style="mix-blend-mode:overlay" d="M126.72 396.179H105.613V417.331H126.72V396.179Z" fill="url(#paint33_linear_4_618)"></path><path style="mix-blend-mode:overlay" d="M293.613 330.577H272.506V351.729H293.613V330.577Z" fill="url(#paint34_linear_4_618)"></path><path style="mix-blend-mode:overlay" d="M198.503 399.643H177.396V420.795H198.503V399.643Z" fill="url(#paint35_linear_4_618)"></path><path style="mix-blend-mode:overlay" d="M361.204 243.678H340.097V264.83H361.204V243.678Z" fill="url(#paint36_linear_4_618)"></path><path style="mix-blend-mode:overlay" d="M185.224 335.069H173.081V347.237H185.224V335.069Z" fill="url(#paint37_linear_4_618)"></path><path style="mix-blend-mode:overlay" d="M111.355 275.312H105.278V281.401H111.355V275.312Z" fill="url(#paint38_linear_4_618)"></path><path style="mix-blend-mode:overlay" d="M353.7 164.49H347.624V170.579H353.7V164.49Z" fill="url(#paint39_linear_4_618)"></path><path style="mix-blend-mode:overlay" d="M68.5167 178.368H62.4399V184.457H68.5167V178.368Z" fill="url(#paint40_linear_4_618)"></path><path style="mix-blend-mode:overlay" d="M159.233 211.699H147.091V223.868H159.233V211.699Z" fill="url(#paint41_linear_4_618)"></path><path style="mix-blend-mode:overlay" d="M200.098 413.386H187.956V425.555H200.098V413.386Z" fill="url(#paint42_linear_4_618)"></path></g><defs><filter id="filter0_d_4_618" x="273.065" y="359.786" width="59.025" height="53.8789" filterUnits="userSpaceOnUse" color-interpolation-filters="sRGB"><feGaussianBlur stdDeviation="5"></feGaussianBlur></filter><filter id="filter1_d_4_618" x="118.226" y="345.269" width="67.9874" height="68.0752" filterUnits="userSpaceOnUse" color-interpolation-filters="sRGB"><feGaussianBlur stdDeviation="5"></feGaussianBlur></filter><filter id="filter2_d_4_618" x="67.4144" y="198.917" width="50.1719" height="50.2363" filterUnits="userSpaceOnUse" color-interpolation-filters="sRGB"><feGaussianBlur stdDeviation="5"></feGaussianBlur></filter><filter id="filter3_d_4_618" x="321.625" y="271.712" width="58.0634" height="58.1402" filterUnits="userSpaceOnUse" color-interpolation-filters="sRGB"><feGaussianBlur stdDeviation="4.23"></feGaussianBlur></filter><linearGradient id="paint0_linear_4_618" x1="231.374" y1="424.884" x2="260.801" y2="434.991" gradientUnits="userSpaceOnUse"><stop stop-color="white"></stop><stop offset="1" stop-color="#3C3263"></stop></linearGradient><linearGradient id="paint1_linear_4_618" x1="216.555" y1="292.921" x2="263.637" y2="320.377" gradientUnits="userSpaceOnUse"><stop stop-color="white"></stop><stop offset="1" stop-color="#3C3263"></stop></linearGradient><linearGradient id="paint2_linear_4_618" x1="228.475" y1="371.607" x2="258.871" y2="361.501" gradientUnits="userSpaceOnUse"><stop stop-color="white"></stop><stop offset="1" stop-color="#3C3263"></stop></linearGradient><linearGradient id="paint3_linear_4_618" x1="269.351" y1="279.591" x2="282.423" y2="243.35" gradientUnits="userSpaceOnUse"><stop offset="0.13" stop-color="white"></stop><stop offset="1" stop-color="#3C3263"></stop></linearGradient><linearGradient id="paint4_linear_4_618" x1="258.49" y1="265.456" x2="287.442" y2="253.901" gradientUnits="userSpaceOnUse"><stop stop-color="white"></stop><stop offset="1" stop-color="#3C3263"></stop></linearGradient><linearGradient id="paint5_linear_4_618" x1="222.576" y1="339.997" x2="258.765" y2="326.995" gradientUnits="userSpaceOnUse"><stop stop-color="white"></stop><stop offset="1" stop-color="#3C3263"></stop></linearGradient><linearGradient id="paint6_linear_4_618" x1="251.923" y1="419.901" x2="277.367" y2="419.901" gradientUnits="userSpaceOnUse"><stop stop-color="white"></stop><stop offset="1" stop-color="#3C3263"></stop></linearGradient><linearGradient id="paint7_linear_4_618" x1="232.277" y1="320.8" x2="60.0831" y2="307.805" gradientUnits="userSpaceOnUse"><stop stop-color="white"></stop><stop offset="1" stop-color="#3C3263" stop-opacity="0"></stop></linearGradient><linearGradient id="paint8_linear_4_618" x1="236.458" y1="72.317" x2="285.644" y2="175.392" gradientUnits="userSpaceOnUse"><stop stop-color="white"></stop><stop offset="1" stop-color="#3C3263"></stop></linearGradient><linearGradient id="paint9_linear_4_618" x1="320.462" y1="63.5902" x2="118.593" y2="95.3588" gradientUnits="userSpaceOnUse"><stop stop-color="white"></stop><stop offset="1" stop-color="#3C3263" stop-opacity="0"></stop></linearGradient><linearGradient id="paint10_linear_4_618" x1="324.331" y1="88.1503" x2="122.462" y2="119.919" gradientUnits="userSpaceOnUse"><stop stop-color="white"></stop><stop offset="1" stop-color="#3C3263" stop-opacity="0"></stop></linearGradient><linearGradient id="paint11_linear_4_618" x1="208.572" y1="117.671" x2="314.227" y2="146.552" gradientUnits="userSpaceOnUse"><stop stop-color="white"></stop><stop offset="1" stop-color="#3C3263"></stop></linearGradient><linearGradient id="paint12_linear_4_618" x1="221.004" y1="118.331" x2="263.949" y2="132.289" gradientUnits="userSpaceOnUse"><stop stop-color="white"></stop><stop offset="1" stop-color="#3C3263"></stop></linearGradient><linearGradient id="paint13_linear_4_618" x1="234.707" y1="105.716" x2="196.569" y2="126.91" gradientUnits="userSpaceOnUse"><stop stop-color="white"></stop><stop offset="1" stop-color="#3C3263"></stop></linearGradient><linearGradient id="paint14_linear_4_618" x1="205.706" y1="98.6648" x2="227.94" y2="125.447" gradientUnits="userSpaceOnUse"><stop stop-color="white"></stop><stop offset="1" stop-color="#3C3263"></stop></linearGradient><linearGradient id="paint15_linear_4_618" x1="181.165" y1="98.7094" x2="234.016" y2="98.7094" gradientUnits="userSpaceOnUse"><stop stop-color="white"></stop><stop offset="1" stop-color="#3C3263"></stop></linearGradient><linearGradient id="paint16_linear_4_618" x1="364.973" y1="41.6448" x2="384.32" y2="70.6139" gradientUnits="userSpaceOnUse"><stop stop-color="white"></stop><stop offset="1" stop-color="#3C3263"></stop></linearGradient><linearGradient id="paint17_linear_4_618" x1="85.7212" y1="138.645" x2="87.6584" y2="165.238" gradientUnits="userSpaceOnUse"><stop stop-color="white"></stop><stop offset="1" stop-color="#3C3263"></stop></linearGradient><linearGradient id="paint18_linear_4_618" x1="249.492" y1="217.353" x2="235.691" y2="260.836" gradientUnits="userSpaceOnUse"><stop stop-color="white"></stop><stop offset="1" stop-color="#3C3263"></stop></linearGradient><linearGradient id="paint19_linear_4_618" x1="168.187" y1="263.814" x2="189.465" y2="286.977" gradientUnits="userSpaceOnUse"><stop stop-color="white"></stop><stop offset="1" stop-color="#3C3263"></stop></linearGradient><linearGradient id="paint20_linear_4_618" x1="272.707" y1="212.336" x2="340.064" y2="253.54" gradientUnits="userSpaceOnUse"><stop stop-color="white"></stop><stop offset="1" stop-color="#3C3263"></stop></linearGradient><linearGradient id="paint21_linear_4_618" x1="266.964" y1="204.928" x2="266.106" y2="205.072" gradientUnits="userSpaceOnUse"><stop stop-color="white"></stop><stop offset="1" stop-color="#3C3263"></stop></linearGradient><linearGradient id="paint22_linear_4_618" x1="315.913" y1="195.776" x2="268.776" y2="203.777" gradientUnits="userSpaceOnUse"><stop stop-color="white"></stop><stop offset="1" stop-color="#3C3263"></stop></linearGradient><linearGradient id="paint23_linear_4_618" x1="253.74" y1="226.806" x2="288.469" y2="234.741" gradientUnits="userSpaceOnUse"><stop stop-color="white"></stop><stop offset="1" stop-color="#3C3263"></stop></linearGradient><linearGradient id="paint24_linear_4_618" x1="191.925" y1="236.449" x2="211.267" y2="262.031" gradientUnits="userSpaceOnUse"><stop stop-color="white"></stop><stop offset="1" stop-color="#3C3263"></stop></linearGradient><linearGradient id="paint25_linear_4_618" x1="232.723" y1="242.863" x2="309.651" y2="368.869" gradientUnits="userSpaceOnUse"><stop stop-color="white"></stop><stop offset="1" stop-color="#3C3263" stop-opacity="0"></stop></linearGradient><linearGradient id="paint26_linear_4_618" x1="265.27" y1="204.525" x2="267.324" y2="205.773" gradientUnits="userSpaceOnUse"><stop stop-color="white"></stop><stop offset="1" stop-color="#3C3263"></stop></linearGradient><linearGradient id="paint27_linear_4_618" x1="288.863" y1="165.305" x2="351.735" y2="78.9141" gradientUnits="userSpaceOnUse"><stop stop-color="white"></stop><stop offset="1" stop-color="#3C3263" stop-opacity="0"></stop></linearGradient><linearGradient id="paint28_linear_4_618" x1="307.294" y1="115.884" x2="666.321" y2="-377.405" gradientUnits="userSpaceOnUse"><stop stop-color="white"></stop><stop offset="1" stop-color="#3C3263" stop-opacity="0"></stop></linearGradient><linearGradient id="paint29_linear_4_618" x1="126.028" y1="307.727" x2="131.347" y2="335.277" gradientUnits="userSpaceOnUse"><stop stop-color="white"></stop><stop offset="1" stop-color="#3C3263"></stop></linearGradient><linearGradient id="paint30_linear_4_618" x1="148.496" y1="312.822" x2="165.426" y2="337.438" gradientUnits="userSpaceOnUse"><stop stop-color="white"></stop><stop offset="1" stop-color="#3C3263"></stop></linearGradient><linearGradient id="paint31_linear_4_618" x1="223" y1="466.507" x2="223" y2="152.321" gradientUnits="userSpaceOnUse"><stop stop-color="white"></stop><stop offset="1" stop-color="#2A2344" stop-opacity="0"></stop></linearGradient><linearGradient id="paint32_linear_4_618" x1="348.404" y1="388.29" x2="348.404" y2="479.133" gradientUnits="userSpaceOnUse"><stop stop-color="white"></stop><stop offset="1" stop-color="#2A2344" stop-opacity="0"></stop></linearGradient><linearGradient id="paint33_linear_4_618" x1="116.172" y1="380.792" x2="116.172" y2="471.635" gradientUnits="userSpaceOnUse"><stop stop-color="white"></stop><stop offset="1" stop-color="#2A2344" stop-opacity="0"></stop></linearGradient><linearGradient id="paint34_linear_4_618" x1="283.054" y1="315.202" x2="283.054" y2="406.045" gradientUnits="userSpaceOnUse"><stop stop-color="white"></stop><stop offset="1" stop-color="#2A2344" stop-opacity="0"></stop></linearGradient><linearGradient id="paint35_linear_4_618" x1="187.956" y1="384.256" x2="187.956" y2="475.099" gradientUnits="userSpaceOnUse"><stop stop-color="white"></stop><stop offset="1" stop-color="#2A2344" stop-opacity="0"></stop></linearGradient><linearGradient id="paint36_linear_4_618" x1="350.656" y1="228.292" x2="350.656" y2="319.135" gradientUnits="userSpaceOnUse"><stop stop-color="white"></stop><stop offset="1" stop-color="#2A2344" stop-opacity="0"></stop></linearGradient><linearGradient id="paint37_linear_4_618" x1="179.158" y1="326.219" x2="179.158" y2="378.491" gradientUnits="userSpaceOnUse"><stop stop-color="white"></stop><stop offset="1" stop-color="#2A2344" stop-opacity="0"></stop></linearGradient><linearGradient id="paint38_linear_4_618" x1="108.311" y1="270.887" x2="108.311" y2="297.022" gradientUnits="userSpaceOnUse"><stop stop-color="white"></stop><stop offset="1" stop-color="#2A2344" stop-opacity="0"></stop></linearGradient><linearGradient id="paint39_linear_4_618" x1="350.656" y1="160.065" x2="350.656" y2="186.2" gradientUnits="userSpaceOnUse"><stop stop-color="white"></stop><stop offset="1" stop-color="#2A2344" stop-opacity="0"></stop></linearGradient><linearGradient id="paint40_linear_4_618" x1="65.4727" y1="173.943" x2="65.4727" y2="200.078" gradientUnits="userSpaceOnUse"><stop stop-color="white"></stop><stop offset="1" stop-color="#2A2344" stop-opacity="0"></stop></linearGradient><linearGradient id="paint41_linear_4_618" x1="153.168" y1="202.85" x2="153.168" y2="255.121" gradientUnits="userSpaceOnUse"><stop stop-color="white"></stop><stop offset="1" stop-color="#2A2344" stop-opacity="0"></stop></linearGradient><linearGradient id="paint42_linear_4_618" x1="194.032" y1="404.537" x2="194.032" y2="456.808" gradientUnits="userSpaceOnUse"><stop stop-color="white"></stop><stop offset="1" stop-color="#2A2344" stop-opacity="0"></stop></linearGradient><clipPath id="clip0_4_618"><rect width="446" height="495" fill="white"></rect></clipPath></defs></svg>